<svg xmlns="http://www.w3.org/2000/svg" width="800" height="400" viewBox="0 0 800 400"><defs><linearGradient id="metal" x2="1" y2="1"><stop stop-color="#d1e0ff"/><stop offset=".3" stop-color="#548cff"/><stop offset=".55" stop-color="#d1e0ff"/><stop offset="1" stop-color="#548cff"/></linearGradient><linearGradient id="well" x2="0" y2="1"><stop stop-color="#1c2033"/><stop offset="1" stop-color="#090e19"/></linearGradient></defs><rect x="16" y="16" width="768" height="368" rx="58" fill="url(#well)" stroke="url(#metal)" stroke-width="12"/><rect x="55" y="55" width="690" height="290" rx="29.0" fill="none" stroke="#d1e0ff" stroke-width="2" opacity=".7"/><ellipse cx="36" cy="65.0" rx="20" ry="13" fill="none" stroke="#548cff" stroke-width="2"/><path d="M36 52.0L49 65.0L36 78.0L23 65.0Z" fill="#548cff" stroke="#d1e0ff" stroke-width="2"/><path d="M23 65.0H49M36 52.0V78.0" stroke="#d1e0ff" opacity=".5"/><ellipse cx="36" cy="132.5" rx="20" ry="13" fill="none" stroke="#548cff" stroke-width="2"/><path d="M36 119.5L49 132.5L36 145.5L23 132.5Z" fill="#548cff" stroke="#d1e0ff" stroke-width="2"/><path d="M23 132.5H49M36 119.5V145.5" stroke="#d1e0ff" opacity=".5"/><ellipse cx="36" cy="200.0" rx="20" ry="13" fill="none" stroke="#548cff" stroke-width="2"/><path d="M36 187.0L49 200.0L36 213.0L23 200.0Z" fill="#548cff" stroke="#d1e0ff" stroke-width="2"/><path d="M23 200.0H49M36 187.0V213.0" stroke="#d1e0ff" opacity=".5"/><ellipse cx="36" cy="267.5" rx="20" ry="13" fill="none" stroke="#548cff" stroke-width="2"/><path d="M36 254.5L49 267.5L36 280.5L23 267.5Z" fill="#548cff" stroke="#d1e0ff" stroke-width="2"/><path d="M23 267.5H49M36 254.5V280.5" stroke="#d1e0ff" opacity=".5"/><ellipse cx="36" cy="335.0" rx="20" ry="13" fill="none" stroke="#548cff" stroke-width="2"/><path d="M36 322.0L49 335.0L36 348.0L23 335.0Z" fill="#548cff" stroke="#d1e0ff" stroke-width="2"/><path d="M23 335.0H49M36 322.0V348.0" stroke="#d1e0ff" opacity=".5"/><ellipse cx="764" cy="65.0" rx="20" ry="13" fill="none" stroke="#548cff" stroke-width="2"/><path d="M764 52.0L777 65.0L764 78.0L751 65.0Z" fill="#548cff" stroke="#d1e0ff" stroke-width="2"/><path d="M751 65.0H777M764 52.0V78.0" stroke="#d1e0ff" opacity=".5"/><ellipse cx="764" cy="132.5" rx="20" ry="13" fill="none" stroke="#548cff" stroke-width="2"/><path d="M764 119.5L777 132.5L764 145.5L751 132.5Z" fill="#548cff" stroke="#d1e0ff" stroke-width="2"/><path d="M751 132.5H777M764 119.5V145.5" stroke="#d1e0ff" opacity=".5"/><ellipse cx="764" cy="200.0" rx="20" ry="13" fill="none" stroke="#548cff" stroke-width="2"/><path d="M764 187.0L777 200.0L764 213.0L751 200.0Z" fill="#548cff" stroke="#d1e0ff" stroke-width="2"/><path d="M751 200.0H777M764 187.0V213.0" stroke="#d1e0ff" opacity=".5"/><ellipse cx="764" cy="267.5" rx="20" ry="13" fill="none" stroke="#548cff" stroke-width="2"/><path d="M764 254.5L777 267.5L764 280.5L751 267.5Z" fill="#548cff" stroke="#d1e0ff" stroke-width="2"/><path d="M751 267.5H777M764 254.5V280.5" stroke="#d1e0ff" opacity=".5"/><ellipse cx="764" cy="335.0" rx="20" ry="13" fill="none" stroke="#548cff" stroke-width="2"/><path d="M764 322.0L777 335.0L764 348.0L751 335.0Z" fill="#548cff" stroke="#d1e0ff" stroke-width="2"/><path d="M751 335.0H777M764 322.0V348.0" stroke="#d1e0ff" opacity=".5"/><path d="M400.0 13L421.0 34L400.0 55L379.0 34Z" fill="#548cff" stroke="#d1e0ff" stroke-width="2"/><path d="M379.0 34H421.0M400.0 13V55" stroke="#d1e0ff" opacity=".5"/><path d="M400.0 351L415.0 366L400.0 381L385.0 366Z" fill="#548cff" stroke="#d1e0ff" stroke-width="2"/><path d="M385.0 366H415.0M400.0 351V381" stroke="#d1e0ff" opacity=".5"/></svg>