<svg xmlns="http://www.w3.org/2000/svg" width="1000" height="500" viewBox="0 0 1000 500"><defs><linearGradient id="metal" x2="1" y2="1"><stop stop-color="#e8f8ff"/><stop offset=".3" stop-color="#8ddcff"/><stop offset=".55" stop-color="#e8f8ff"/><stop offset="1" stop-color="#8ddcff"/></linearGradient><linearGradient id="well" x2="0" y2="1"><stop stop-color="#1c2033"/><stop offset="1" stop-color="#090e19"/></linearGradient></defs><rect x="16" y="16" width="968" height="468" rx="28" fill="url(#well)" stroke="url(#metal)" stroke-width="12"/><rect x="55" y="55" width="890" height="390" rx="14.0" fill="none" stroke="#e8f8ff" stroke-width="2" opacity=".7"/><path d="M21 49.0L36 58.0L51 49.0M21 65.0L36 74.0L51 65.0M21 81.0L36 90.0L51 81.0" fill="none" stroke="#8ddcff" stroke-width="3"/><path d="M21 141.5L36 150.5L51 141.5M21 157.5L36 166.5L51 157.5M21 173.5L36 182.5L51 173.5" fill="none" stroke="#8ddcff" stroke-width="3"/><path d="M21 234.0L36 243.0L51 234.0M21 250.0L36 259.0L51 250.0M21 266.0L36 275.0L51 266.0" fill="none" stroke="#8ddcff" stroke-width="3"/><path d="M21 326.5L36 335.5L51 326.5M21 342.5L36 351.5L51 342.5M21 358.5L36 367.5L51 358.5" fill="none" stroke="#8ddcff" stroke-width="3"/><path d="M21 419.0L36 428.0L51 419.0M21 435.0L36 444.0L51 435.0M21 451.0L36 460.0L51 451.0" fill="none" stroke="#8ddcff" stroke-width="3"/><path d="M949 49.0L964 58.0L979 49.0M949 65.0L964 74.0L979 65.0M949 81.0L964 90.0L979 81.0" fill="none" stroke="#8ddcff" stroke-width="3"/><path d="M949 141.5L964 150.5L979 141.5M949 157.5L964 166.5L979 157.5M949 173.5L964 182.5L979 173.5" fill="none" stroke="#8ddcff" stroke-width="3"/><path d="M949 234.0L964 243.0L979 234.0M949 250.0L964 259.0L979 250.0M949 266.0L964 275.0L979 266.0" fill="none" stroke="#8ddcff" stroke-width="3"/><path d="M949 326.5L964 335.5L979 326.5M949 342.5L964 351.5L979 342.5M949 358.5L964 367.5L979 358.5" fill="none" stroke="#8ddcff" stroke-width="3"/><path d="M949 419.0L964 428.0L979 419.0M949 435.0L964 444.0L979 435.0M949 451.0L964 460.0L979 451.0" fill="none" stroke="#8ddcff" stroke-width="3"/><path d="M500.0 13L521.0 34L500.0 55L479.0 34Z" fill="#8ddcff" stroke="#e8f8ff" stroke-width="2"/><path d="M479.0 34H521.0M500.0 13V55" stroke="#e8f8ff" opacity=".5"/><path d="M500.0 451L515.0 466L500.0 481L485.0 466Z" fill="#8ddcff" stroke="#e8f8ff" stroke-width="2"/><path d="M485.0 466H515.0M500.0 451V481" stroke="#e8f8ff" opacity=".5"/></svg>