<svg xmlns="http://www.w3.org/2000/svg" width="1000" height="500" viewBox="0 0 1000 500"><defs><linearGradient id="metal" x2="1" y2="1"><stop stop-color="#b5f6d6"/><stop offset=".3" stop-color="#42dbaa"/><stop offset=".55" stop-color="#b5f6d6"/><stop offset="1" stop-color="#42dbaa"/></linearGradient><linearGradient id="well" x2="0" y2="1"><stop stop-color="#1c2033"/><stop offset="1" stop-color="#090e19"/></linearGradient></defs><rect x="16" y="16" width="968" height="468" rx="58" fill="url(#well)" stroke="url(#metal)" stroke-width="12"/><rect x="55" y="55" width="890" height="390" rx="29.0" fill="none" stroke="#b5f6d6" stroke-width="2" opacity=".7"/><path d="M22 56.0Q36 42.0 50 56.0Q36 70.0 22 74.0Q36 88.0 50 74.0" fill="none" stroke="#42dbaa" stroke-width="3"/><path d="M22 148.5Q36 134.5 50 148.5Q36 162.5 22 166.5Q36 180.5 50 166.5" fill="none" stroke="#42dbaa" stroke-width="3"/><path d="M22 241.0Q36 227.0 50 241.0Q36 255.0 22 259.0Q36 273.0 50 259.0" fill="none" stroke="#42dbaa" stroke-width="3"/><path d="M22 333.5Q36 319.5 50 333.5Q36 347.5 22 351.5Q36 365.5 50 351.5" fill="none" stroke="#42dbaa" stroke-width="3"/><path d="M22 426.0Q36 412.0 50 426.0Q36 440.0 22 444.0Q36 458.0 50 444.0" fill="none" stroke="#42dbaa" stroke-width="3"/><path d="M950 56.0Q964 42.0 978 56.0Q964 70.0 950 74.0Q964 88.0 978 74.0" fill="none" stroke="#42dbaa" stroke-width="3"/><path d="M950 148.5Q964 134.5 978 148.5Q964 162.5 950 166.5Q964 180.5 978 166.5" fill="none" stroke="#42dbaa" stroke-width="3"/><path d="M950 241.0Q964 227.0 978 241.0Q964 255.0 950 259.0Q964 273.0 978 259.0" fill="none" stroke="#42dbaa" stroke-width="3"/><path d="M950 333.5Q964 319.5 978 333.5Q964 347.5 950 351.5Q964 365.5 978 351.5" fill="none" stroke="#42dbaa" stroke-width="3"/><path d="M950 426.0Q964 412.0 978 426.0Q964 440.0 950 444.0Q964 458.0 978 444.0" fill="none" stroke="#42dbaa" stroke-width="3"/><path d="M500.0 13L521.0 34L500.0 55L479.0 34Z" fill="#42dbaa" stroke="#b5f6d6" stroke-width="2"/><path d="M479.0 34H521.0M500.0 13V55" stroke="#b5f6d6" opacity=".5"/><path d="M500.0 451L515.0 466L500.0 481L485.0 466Z" fill="#42dbaa" stroke="#b5f6d6" stroke-width="2"/><path d="M485.0 466H515.0M500.0 451V481" stroke="#b5f6d6" opacity=".5"/></svg>